<svg width="258" height="45" viewBox="0 0 258 45" fill="none" xmlns="http://www.w3.org/2000/svg">
<path d="M0.202897 3.42859V2.97103H8.34741V3.42859H6.10538V34.5424H8.34741V35H0.202897V34.5424H2.30766V3.42859H0.202897ZM31.0004 35C29.7497 35 28.7889 34.7255 28.1178 34.1764C27.4772 33.6273 27.1417 33.0783 27.1112 32.5292L27.0654 31.7513V17.3841C27.0654 14.9743 26.4401 13.4338 25.1894 12.7627C24.5488 12.4577 23.7557 12.3052 22.8101 12.3052C20.8579 12.3052 19.1039 13.083 17.5482 14.6387C15.9925 16.1639 15.2147 17.5366 15.2147 18.7567V35H12.0118V12.1222H15.2147V17.3383C15.7333 16.0266 16.6941 14.8065 18.0973 13.6779C19.5005 12.5187 21.0409 11.9391 22.7186 11.9391C24.3963 11.9391 25.7537 12.1069 26.7909 12.4425C27.8585 12.7475 28.6364 13.1898 29.1244 13.7694C29.887 14.715 30.2683 15.9351 30.2683 17.4298V31.7513C30.2683 32.636 30.4361 33.3223 30.7716 33.8104C31.1377 34.2679 31.5037 34.5119 31.8698 34.5424L32.3731 34.634H33.7915V35H31.0004ZM49.4567 13.7236C48.9687 13.3271 48.1756 12.9915 47.0774 12.717C46.0098 12.4425 45.2015 12.3052 44.6524 12.3052C44.1033 12.3052 43.783 12.3052 43.6915 12.3052C42.0443 12.3357 40.8547 12.7627 40.1226 13.5863C39.3905 14.3794 39.0244 15.2793 39.0244 16.2859C39.0244 17.2926 39.3447 18.1467 39.9853 18.8482C40.6259 19.5193 41.419 20.0531 42.3646 20.4497C43.3407 20.8157 44.3778 21.2428 45.476 21.7309C46.6046 22.2189 47.6418 22.7222 48.5874 23.2408C49.5635 23.7289 50.3718 24.4609 51.0124 25.4371C51.653 26.3827 51.9733 27.5723 51.9733 29.006C51.9733 30.4397 51.47 31.6598 50.4634 32.6665C49.4567 33.6731 48.3281 34.3442 47.0774 34.6797C45.8573 35.0153 44.5304 35.183 43.0967 35.183C39.9853 35.183 37.6518 34.4967 36.0961 33.124L36.3706 32.8495C36.9807 33.4291 37.8805 33.9019 39.0702 34.2679C40.2903 34.634 41.4647 34.817 42.5934 34.817C44.3931 34.817 45.8725 34.3289 47.0317 33.3528C48.2213 32.3462 48.8161 31.1108 48.8161 29.6466C48.8161 28.1519 48.3738 26.9623 47.4892 26.0776C46.6046 25.1625 45.5217 24.4609 44.2406 23.9729C42.9899 23.4543 41.724 22.951 40.4429 22.4629C39.1617 21.9444 38.0788 21.2428 37.1942 20.3582C36.3096 19.4431 35.8673 18.3907 35.8673 17.201C35.8673 16.0114 36.1418 15.0505 36.6909 14.3184C37.24 13.5558 37.9721 13.022 38.8872 12.717C40.4429 12.1984 41.9986 11.9391 43.5542 11.9391C46.1776 11.9391 48.2213 12.4272 49.6855 13.4033L49.4567 13.7236ZM59.1727 35C57.922 35 56.9611 34.7255 56.2901 34.1764C55.6495 33.6273 55.3139 33.0783 55.2834 32.5292L55.2377 31.7513V12.1222H58.4406V31.7513C58.4406 32.636 58.6083 33.3223 58.9439 33.8104C59.3099 34.2679 59.6607 34.5119 59.9963 34.5424L60.5453 34.634H61.9638V35H59.1727ZM55.5122 6.99753C55.1462 6.63148 54.9631 6.17393 54.9631 5.62486C54.9631 5.07579 55.1462 4.61823 55.5122 4.25219C55.8783 3.85564 56.3358 3.65736 56.8849 3.65736C57.4339 3.65736 57.8915 3.85564 58.2575 4.25219C58.6541 4.61823 58.8524 5.07579 58.8524 5.62486C58.8524 6.17393 58.6541 6.63148 58.2575 6.99753C57.8915 7.36357 57.4339 7.5466 56.8849 7.5466C56.3358 7.5466 55.8783 7.36357 55.5122 6.99753ZM64.738 24.3847C64.738 20.4192 65.6989 17.3536 67.6207 15.1878C69.5424 13.022 72.425 11.9391 76.2685 11.9391C78.0682 11.9391 79.8832 12.3967 81.7134 13.3118V0.729004H84.9163V31.7513C84.9163 32.636 85.0841 33.3223 85.4196 33.8104C85.7857 34.2679 86.1517 34.5119 86.5177 34.5424L87.0211 34.634H88.4395V35H85.6484C84.3977 35 83.4369 34.7255 82.7658 34.1764C82.1252 33.6273 81.7897 33.0783 81.7592 32.5292L81.7134 31.7513V31.0193C81.1338 32.0869 80.173 33.0325 78.8308 33.8561C77.4886 34.6797 75.9024 35.0915 74.0722 35.0915C67.8494 34.939 64.738 31.3701 64.738 24.3847ZM74.118 34.7255C76.1617 34.7255 77.9157 34.1764 79.3799 33.0783C80.844 31.9801 81.6219 30.8972 81.7134 29.8296V13.7236C79.5476 12.778 77.6869 12.3052 76.1312 12.3052C73.4164 12.3052 71.3726 13.3728 70 15.5081C68.6273 17.6128 67.9409 20.5717 67.9409 24.3847C67.9409 31.2785 70 34.7255 74.118 34.7255ZM92.9167 23.8356C92.9167 27.6181 93.5726 30.3939 94.8842 32.1631C96.2264 33.9324 97.9804 34.817 100.146 34.817C103.197 34.817 105.911 34.3594 108.291 33.4443L108.428 33.7646C105.988 34.7102 103.227 35.183 100.146 35.183C97.0958 35.183 94.6097 34.2679 92.688 32.4377C90.7662 30.6075 89.8054 27.7859 89.8054 23.9729C89.8054 20.1599 90.812 17.201 92.8252 15.0963C94.8385 12.9915 97.4008 11.9391 100.512 11.9391C103.013 11.9391 105.118 12.6865 106.826 14.1812C108.535 15.6759 109.389 17.8874 109.389 20.8157C109.389 20.9683 109.389 21.1208 109.389 21.2733H93.054C92.9625 22.0969 92.9167 22.951 92.9167 23.8356ZM106.277 20.9073C106.247 17.9789 105.683 15.8131 104.584 14.4099C103.486 13.0068 102.068 12.3052 100.329 12.3052C98.5905 12.3052 97.0348 13.0678 95.6621 14.593C94.3199 16.1182 93.4658 18.2229 93.0998 20.9073H106.277ZM113.096 19.077C113.096 14.1049 114.438 10.1547 117.123 7.22631C119.807 4.26744 123.193 2.78801 127.28 2.78801C131.49 2.78801 134.845 3.88614 137.347 6.08242C140.092 8.55322 141.465 12.8848 141.465 19.077C141.465 23.5306 140.366 27.1605 138.17 29.9669C136.004 32.7732 133.168 34.4509 129.66 35C131.581 35.4271 133.9 36.7082 136.614 38.8435C137.652 39.6671 138.78 40.4907 140 41.3143C142.746 43.1445 146.086 44.0596 150.021 44.0596V44.5172C144.469 44.5172 140.153 43.9071 137.072 42.687C134.479 41.6193 132.603 40.3382 131.444 38.8435C130.926 38.1724 130.453 37.5623 130.026 37.0132C129.629 36.4947 129.217 36.0524 128.79 35.6863C128.363 35.3508 127.86 35.183 127.28 35.183C125.145 35.183 123.269 34.939 121.652 34.4509C120.036 33.9629 118.556 33.1393 117.214 31.9801C114.469 29.5703 113.096 25.2693 113.096 19.077ZM116.894 18.9855C116.894 29.4788 120.356 34.7255 127.28 34.7255C130.27 34.7255 132.741 33.3223 134.693 30.5159C136.675 27.7096 137.667 23.8661 137.667 18.9855C137.667 8.49222 134.205 3.24557 127.28 3.24557C124.291 3.24557 121.805 4.64874 119.822 7.45508C117.87 10.2614 116.894 14.1049 116.894 18.9855ZM148.773 29.7381C148.773 32.1479 149.414 33.6883 150.695 34.3594C151.305 34.6645 152.083 34.817 153.028 34.817C154.95 34.817 156.658 34.0849 158.153 32.6207C159.678 31.1565 160.502 29.7991 160.624 28.5485V12.1222H163.827V31.7513C163.827 32.636 163.994 33.3223 164.33 33.8104C164.696 34.2679 165.062 34.5119 165.428 34.5424L165.931 34.634H167.35V35H164.559C163.308 35 162.347 34.7255 161.676 34.1764C161.035 33.6273 160.7 33.0783 160.669 32.5292L160.624 31.7513V29.7839C160.075 31.0955 159.099 32.3309 157.695 33.4901C156.292 34.6187 154.752 35.183 153.074 35.183C151.427 35.183 150.069 35.0305 149.002 34.7255C147.965 34.3899 147.217 33.9324 146.76 33.3528C145.967 32.4072 145.57 31.187 145.57 29.6923V12.1222H148.773V29.7381ZM188.551 35C186.477 35 185.059 34.6035 184.296 33.8104C183.595 33.1393 183.244 32.5597 183.244 32.0716V31.1108C181.749 33.8256 179.355 35.183 176.06 35.183C172.217 35.183 170.036 33.4443 169.517 29.9669C169.456 29.6008 169.426 29.2348 169.426 28.8687C169.426 28.4722 169.487 28.0451 169.609 27.5876C169.731 27.13 170.081 26.6267 170.661 26.0776C171.82 24.9795 174.367 24.3084 178.302 24.0644C179.278 23.9729 180.178 23.9271 181.002 23.9271C181.825 23.9271 182.573 23.9576 183.244 24.0186V16.4232C183.183 16.3927 183.183 16.2554 183.244 16.0114C183.305 15.7369 183.244 15.4013 183.061 15.0048C182.908 14.5777 182.695 14.1659 182.42 13.7694C182.146 13.3728 181.658 13.0373 180.956 12.7627C180.254 12.4577 179.339 12.3052 178.211 12.3052C177.082 12.3052 175.755 12.5187 174.23 12.9458C172.735 13.3423 171.637 13.7389 170.936 14.1354L170.753 13.8151C173.467 12.5645 176.228 11.9391 179.034 11.9391C182.176 11.9391 184.25 12.5035 185.257 13.6321C186.05 14.5167 186.447 15.4471 186.447 16.4232V31.7513C186.447 32.636 186.614 33.3223 186.95 33.8104C187.316 34.2679 187.682 34.5119 188.048 34.5424L188.551 34.634H189.97V35H188.551ZM176.792 34.817C178.409 34.817 179.858 34.2679 181.139 33.1698C182.451 32.0411 183.152 30.9582 183.244 29.9211V24.3847C182.42 24.3237 181.581 24.2932 180.727 24.2932C179.904 24.2932 179.08 24.3389 178.256 24.4304C175.938 24.705 174.428 25.2235 173.727 25.9861C173.025 26.7487 172.674 27.8011 172.674 29.1433C172.674 29.3873 172.689 29.6618 172.72 29.9669C172.995 33.2003 174.352 34.817 176.792 34.817ZM201.227 14.0897V13.1288C199.854 13.6779 198.604 14.7912 197.475 16.469C196.346 18.1162 195.751 19.6719 195.69 21.136V35H192.488V12.1222H195.69V19.3973C196.178 17.6281 197.109 15.9656 198.482 14.4099C199.854 12.8238 201.41 12.0001 203.149 11.9391H203.332C203.942 11.9391 204.445 12.1527 204.842 12.5797C205.269 12.9763 205.482 13.4796 205.482 14.0897C205.482 14.6997 205.269 15.203 204.842 15.5996C204.445 15.9961 203.942 16.1944 203.332 16.1944C202.722 16.1944 202.218 15.9961 201.822 15.5996C201.425 15.203 201.227 14.6997 201.227 14.0897ZM208.702 12.4882V12.1222H209.663V7.5466H212.866V12.1222H219.867V12.4882H212.866V29.1433C212.866 31.126 213.079 32.5597 213.507 33.4443C213.964 34.3289 214.894 34.7712 216.298 34.7712C217.731 34.7712 219.18 34.4814 220.644 33.9019L220.782 34.2679C219.256 34.8475 217.503 35.1373 215.52 35.1373C213.568 35.1373 212.103 34.7407 211.127 33.9476C210.151 33.124 209.663 31.5073 209.663 29.0975V12.4882H208.702ZM225.939 23.8356C225.939 27.6181 226.595 30.3939 227.906 32.1631C229.249 33.9324 231.002 34.817 233.168 34.817C236.219 34.817 238.933 34.3594 241.313 33.4443L241.45 33.7646C239.01 34.7102 236.249 35.183 233.168 35.183C230.118 35.183 227.632 34.2679 225.71 32.4377C223.788 30.6075 222.827 27.7859 222.827 23.9729C222.827 20.1599 223.834 17.201 225.847 15.0963C227.861 12.9915 230.423 11.9391 233.534 11.9391C236.036 11.9391 238.14 12.6865 239.849 14.1812C241.557 15.6759 242.411 17.8874 242.411 20.8157C242.411 20.9683 242.411 21.1208 242.411 21.2733H226.076C225.985 22.0969 225.939 22.951 225.939 23.8356ZM239.3 20.9073C239.269 17.9789 238.705 15.8131 237.607 14.4099C236.508 13.0068 235.09 12.3052 233.351 12.3052C231.613 12.3052 230.057 13.0678 228.684 14.593C227.342 16.1182 226.488 18.2229 226.122 20.9073H239.3ZM253.015 14.0897V13.1288C251.642 13.6779 250.391 14.7912 249.263 16.469C248.134 18.1162 247.539 19.6719 247.478 21.136V35H244.275V12.1222H247.478V19.3973C247.966 17.6281 248.897 15.9656 250.269 14.4099C251.642 12.8238 253.198 12.0001 254.937 11.9391H255.12C255.73 11.9391 256.233 12.1527 256.629 12.5797C257.057 12.9763 257.27 13.4796 257.27 14.0897C257.27 14.6997 257.057 15.203 256.629 15.5996C256.233 15.9961 255.73 16.1944 255.12 16.1944C254.509 16.1944 254.006 15.9961 253.61 15.5996C253.213 15.203 253.015 14.6997 253.015 14.0897Z" fill="#365CAF"/>
</svg>
