<svg width="40" height="40" viewBox="0 0 40 40" fill="none" xmlns="http://www.w3.org/2000/svg">
<path d="M40 4.70588C38.5277 5.52941 36.9407 6.07059 35.2964 6.32941C36.979 5.08235 38.2792 3.10588 38.891 0.729412C37.304 1.90588 35.5449 2.72941 33.6903 3.2C32.1797 1.17647 30.0574 0 27.6482 0C23.1549 0 19.4837 4.51765 19.4837 10.0941C19.4837 10.8941 19.5602 11.6706 19.6941 12.4C12.8872 11.9765 6.826 7.95294 2.79159 1.85882C2.08413 3.34118 1.6826 5.08235 1.6826 6.91765C1.6826 10.4235 3.11664 13.5294 5.33461 15.2941C3.97706 15.2941 2.71511 14.8235 1.60612 14.1176V14.1882C1.60612 19.0824 4.43595 23.1765 8.18356 24.0941C6.98036 24.4993 5.7172 24.5557 4.49331 24.2588C5.01263 26.2647 6.02971 28.0198 7.40156 29.2775C8.77342 30.5352 10.4311 31.2322 12.1415 31.2706C9.24212 34.0951 5.64818 35.6219 1.95029 35.6C1.30019 35.6 0.650096 35.5529 0 35.4588C3.63289 38.3294 7.95411 40 12.5813 40C27.6482 40 35.9273 24.6118 35.9273 11.2706C35.9273 10.8235 35.9273 10.4 35.9082 9.95294C37.5143 8.54118 38.891 6.75294 40 4.70588Z" fill="black"/>
</svg>
