<svg width="18" height="16" viewBox="0 0 18 16" fill="none" xmlns="http://www.w3.org/2000/svg">
<path d="M16.8886 8.80735L10.7001 15.643C10.5063 15.8571 10.2435 15.9773 9.96952 15.9773C9.6955 15.9773 9.4327 15.8571 9.23893 15.643C9.04517 15.429 8.93631 15.1387 8.93631 14.8361C8.93631 14.5334 9.04517 14.2431 9.23893 14.0291L13.6663 9.14059H1.03142C0.757869 9.14059 0.495524 9.02056 0.302096 8.80691C0.108667 8.59325 0 8.30347 0 8.00131C0 7.69916 0.108667 7.40937 0.302096 7.19572C0.495524 6.98206 0.757869 6.86203 1.03142 6.86203H13.6663L9.24065 1.97071C9.04689 1.75668 8.93803 1.4664 8.93803 1.16372C8.93803 0.861039 9.04689 0.570755 9.24065 0.356728C9.43442 0.1427 9.69722 0.0224609 9.97124 0.0224609C10.2453 0.0224609 10.5081 0.1427 10.7018 0.356728L16.8903 7.19242C16.9865 7.29841 17.0628 7.42433 17.1148 7.56297C17.1668 7.70161 17.1934 7.85022 17.1933 8.00028C17.1931 8.15034 17.1661 8.29889 17.1138 8.43739C17.0616 8.57589 16.985 8.70162 16.8886 8.80735Z" fill="white"/>
</svg>
