<svg width="54" height="39" viewBox="0 0 54 39" fill="none" xmlns="http://www.w3.org/2000/svg">
<path d="M21.6 27.8571L35.613 19.5L21.6 11.1429V27.8571ZM52.812 6.045C53.163 7.35429 53.406 9.10929 53.568 11.3379C53.757 13.5664 53.838 15.4886 53.838 17.16L54 19.5C54 25.6007 53.568 30.0857 52.812 32.955C52.137 35.4621 50.571 37.0779 48.141 37.7743C46.872 38.1364 44.55 38.3871 40.986 38.5543C37.476 38.7493 34.263 38.8329 31.293 38.8329L27 39C15.687 39 8.64 38.5543 5.859 37.7743C3.429 37.0779 1.863 35.4621 1.188 32.955C0.837 31.6457 0.594 29.8907 0.432 27.6621C0.243 25.4336 0.162 23.5114 0.162 21.84L0 19.5C0 13.3993 0.432 8.91429 1.188 6.045C1.863 3.53786 3.429 1.92214 5.859 1.22571C7.128 0.863572 9.45 0.612857 13.014 0.445714C16.524 0.250714 19.737 0.167143 22.707 0.167143L27 0C38.313 0 45.36 0.445714 48.141 1.22571C50.571 1.92214 52.137 3.53786 52.812 6.045Z" fill="black"/>
</svg>
