<?xml version="1.0" encoding="UTF-8"?>
<svg version="1.1" xmlns="http://www.w3.org/2000/svg" width="472" height="101">
<path d="M0 0 C155.76 0 311.52 0 472 0 C472 32.67 472 65.34 472 99 C316.24 99 160.48 99 0 99 C0 66.33 0 33.66 0 0 Z " fill="#9DC4FD" transform="translate(0,2)"/>
<path d="M0 0 C1.33877953 -0.00361794 1.33877953 -0.00361794 2.7046051 -0.00730896 C4.58998054 -0.00633059 6.47538473 0.00706066 8.3605957 0.03198242 C11.2407437 0.06624965 14.11781587 0.0526525 16.99804688 0.03320312 C18.83204427 0.04010301 20.66603376 0.04977668 22.5 0.0625 C23.35847031 0.05754013 24.21694061 0.05258026 25.10142517 0.04747009 C28.79011563 0.11980547 31.44333065 0.47164742 34.86816406 1.9152832 C38.10755362 6.42729008 37.42712203 11.21106345 37.3046875 16.61328125 C37.29761276 17.78401184 37.29053802 18.95474243 37.2832489 20.16094971 C37.25525606 23.90091798 37.19250346 27.63939032 37.12890625 31.37890625 C37.10382993 33.91404088 37.08101561 36.44919898 37.06054688 38.984375 C37.00541309 45.19972932 36.92173602 51.41421092 36.81640625 57.62890625 C39.12640625 57.62890625 41.43640625 57.62890625 43.81640625 57.62890625 C43.81640625 59.93890625 43.81640625 62.24890625 43.81640625 64.62890625 C22.69640625 64.62890625 1.57640625 64.62890625 -20.18359375 64.62890625 C-20.18359375 62.31890625 -20.18359375 60.00890625 -20.18359375 57.62890625 C-17.87359375 57.62890625 -15.56359375 57.62890625 -13.18359375 57.62890625 C-13.1924762 56.98854935 -13.20135864 56.34819244 -13.21051025 55.68843079 C-13.29903046 49.02130055 -13.35934768 42.35433736 -13.40332031 35.68676758 C-13.4234308 33.19874287 -13.45072302 30.71076539 -13.48535156 28.22290039 C-13.53389228 24.6458775 -13.5565687 21.06947974 -13.57421875 17.4921875 C-13.59486389 16.3805574 -13.61550903 15.26892731 -13.63677979 14.12361145 C-13.63805754 9.72221968 -13.56270871 6.46588182 -11.7331543 2.42675781 C-7.91454784 -0.26597588 -4.57195066 -0.07044307 0 0 Z " fill="#385EB0" transform="translate(408.18359375,21.37109375)"/>
<path d="M0 0 C19.83333333 2.83333333 19.83333333 2.83333333 22 5 C22.08871273 8.02977804 22.1151935 11.03667022 22.09765625 14.06640625 C22.0962413 14.97502914 22.09482635 15.88365204 22.09336853 16.81980896 C22.08775193 19.73407221 22.07519665 22.64825981 22.0625 25.5625 C22.05748714 27.53320202 22.05292386 29.50390524 22.04882812 31.47460938 C22.03777711 36.31643559 22.02050138 41.15820495 22 46 C16 48 16 48 0 50 C0 33.5 0 17 0 0 Z " fill="#99C0FA" transform="translate(402,29)"/>
<path d="M0 0 C1.65 0 3.3 0 5 0 C5.33 15.18 5.66 30.36 6 46 C7.32 46.66 8.64 47.32 10 48 C6.625 48.125 6.625 48.125 3 48 C2.34 47.34 1.68 46.68 1 46 C1 45.01 1 44.02 1 43 C0.21625 43.825 -0.5675 44.65 -1.375 45.5 C-4.95658078 48.47899255 -8.03891099 48.66587066 -12.59375 48.42578125 C-16.16019965 47.79470493 -18.33035961 46.40267635 -21 44 C-24.45986548 38.77441007 -23.56301907 31.97773334 -23 26 C-21.3125 22.375 -21.3125 22.375 -19 20 C-18.278125 19.236875 -17.55625 18.47375 -16.8125 17.6875 C-13.02078787 15.41247272 -9.40991529 14.77346326 -5 15 C-3.35 15.66 -1.7 16.32 0 17 C0 11.39 0 5.78 0 0 Z " fill="#9BC2FC" transform="translate(118,26)"/>
<path d="M0 0 C5.35224142 3.14481982 8.59463027 7.15498457 10.57421875 13.09375 C11.34146859 23.58369042 10.94341503 31.71627765 4.13671875 40.09375 C1.48812546 42.16094476 -0.11319462 42.809814 -3.42578125 43.09375 C2.22879635 49.27118238 10.29265377 54.58801091 18.57421875 56.09375 C18.57421875 56.42375 18.57421875 56.75375 18.57421875 57.09375 C11.45991036 57.55273764 5.77756801 56.80759725 -0.42578125 53.09375 C-3.06055135 50.62835798 -5.2945233 48.00129396 -7.42578125 45.09375 C-5.65703563 43.26844566 -3.99772743 41.78341098 -1.92578125 40.28125 C2.252253 36.62547003 3.70715217 32.45098282 4.57421875 27.09375 C5.15084564 18.43325769 5.37286527 10.58305953 -0.48828125 3.65625 C-4.53072583 0.39621404 -8.40476822 0.61514391 -13.42578125 1.09375 C-17.64576635 2.83678732 -19.47676426 5.00081431 -21.42578125 9.09375 C-22.63323908 13.66182474 -22.68012851 18.21138581 -22.73828125 22.90625 C-22.76728516 23.67517578 -22.79628906 24.44410156 -22.82617188 25.23632812 C-22.88821763 30.89203731 -21.80093588 35.45892824 -18.42578125 40.09375 C-15.35815287 42.13199673 -15.35815287 42.13199673 -12.42578125 43.09375 C-13.98828125 43.84375 -13.98828125 43.84375 -16.42578125 44.09375 C-22.55093438 41.53232233 -25.60122694 38.06966655 -28.42578125 32.09375 C-30.66505532 25.11755002 -30.42932874 17.35347571 -27.36328125 10.71875 C-21.61225801 0.54386273 -11.47886481 -4.28840038 0 0 Z " fill="#3C62B3" transform="translate(191.42578125,29.90625)"/>
<path d="M0 0 C3.375 0.3125 3.375 0.3125 7 1 C9.29174077 4.43761116 9.29524047 5.92071615 9.4140625 9.98046875 C9.45273437 11.14384766 9.49140625 12.30722656 9.53125 13.50585938 C9.5621875 14.72080078 9.593125 15.93574219 9.625 17.1875 C9.66367187 18.41404297 9.70234375 19.64058594 9.7421875 20.90429688 C9.83656103 23.93604656 9.92214549 26.96778841 10 30 C11.32 30.66 12.64 31.32 14 32 C7.44812362 32.37086093 7.44812362 32.37086093 5.1875 30.5 C4.795625 30.005 4.40375 29.51 4 29 C3.34 29 2.68 29 2 29 C1.34 29.99 0.68 30.98 0 32 C-4.04480899 33.08898704 -6.34662061 33.23423035 -10.3125 31.8125 C-13.07969371 29.94625308 -14.07221181 29.15447986 -15 26 C-15.3125 23.4375 -15.3125 23.4375 -15 21 C-11.8562014 17.04331889 -7.77933702 16.68727656 -3 16 C-0.63371355 15.86638455 1.62773818 15.89905269 4 16 C3.91291962 13.89505699 3.80474307 11.79097858 3.6875 9.6875 C3.62949219 8.51574219 3.57148438 7.34398437 3.51171875 6.13671875 C2.98395232 2.9016314 2.57619276 1.91315119 0 0 Z " fill="#9AC1FB" transform="translate(256,42)"/>
<path d="M0 0 C2.97 0 5.94 0 9 0 C9 16.5 9 33 9 50 C6.69 50 4.38 50 2 50 C1.9845388 49.12676338 1.9845388 49.12676338 1.96876526 48.23588562 C1.86071434 42.18521866 1.74611508 36.13470105 1.62768555 30.08422852 C1.5843322 27.82514567 1.54265742 25.56602997 1.50268555 23.30688477 C1.44499287 20.06256196 1.38129531 16.8184046 1.31640625 13.57421875 C1.29969376 12.56163498 1.28298126 11.54905121 1.26576233 10.50578308 C1.24581711 9.56503433 1.22587189 8.62428558 1.20532227 7.6550293 C1.18977798 6.82674118 1.1742337 5.99845306 1.15821838 5.14506531 C1.07459277 2.81446753 1.07459277 2.81446753 0 0 Z " fill="#99C0FA" transform="translate(429,29)"/>
<path d="M0 0 C3.63 0 7.26 0 11 0 C10.01 0.33 9.02 0.66 8 1 C8 15.19 8 29.38 8 44 C8.99 44.33 9.98 44.66 11 45 C7.37 45 3.74 45 0 45 C0.99 44.505 0.99 44.505 2 44 C2 29.81 2 15.62 2 1 C1.34 0.67 0.68 0.34 0 0 Z " fill="#4268B8" transform="translate(5,29)"/>
<path d="M0 0 C1.65 0 3.3 0 5 0 C5.33 15.18 5.66 30.36 6 46 C7.32 46.66 8.64 47.32 10 48 C6.6875 48.3125 6.6875 48.3125 3 48 C0.11442833 44.38120592 -0.36300654 41.59542498 -0.29296875 37.04296875 C-0.28330078 35.93115234 -0.27363281 34.81933594 -0.26367188 33.67382812 C-0.23853516 32.52333984 -0.21339844 31.37285156 -0.1875 30.1875 C-0.17396484 29.01767578 -0.16042969 27.84785156 -0.14648438 26.64257812 C-0.11120278 23.761248 -0.0619028 20.88086096 0 18 C-0.66 17.67 -1.32 17.34 -2 17 C-1.34 17 -0.68 17 0 17 C0 11.39 0 5.78 0 0 Z " fill="#4066B6" transform="translate(118,26)"/>
<path d="M0 0 C0.8353125 0.37125 0.8353125 0.37125 1.6875 0.75 C0.90375 1.183125 0.12 1.61625 -0.6875 2.0625 C-3.52948375 3.64220247 -3.52948375 3.64220247 -5.3125 6.75 C-5.6425 8.4 -5.9725 10.05 -6.3125 11.75 C-0.3725 11.75 5.5675 11.75 11.6875 11.75 C11.254375 10.326875 10.82125 8.90375 10.375 7.4375 C10.13136719 6.63699219 9.88773437 5.83648437 9.63671875 5.01171875 C8.64567977 2.65035427 7.60675057 1.41120007 5.6875 -0.25 C9.49655906 -0.03233948 10.68116389 0.74394549 13.5 3.4375 C15.6875 6.75 15.6875 6.75 15.6875 12.75 C8.4275 12.75 1.1675 12.75 -6.3125 12.75 C-6.18875 14.6475 -6.065 16.545 -5.9375 18.5 C-5.86789062 19.56734375 -5.79828125 20.6346875 -5.7265625 21.734375 C-5.1722477 25.77146012 -4.33576316 27.90731269 -1.1875 30.5 C-0.56875 30.9125 0.05 31.325 0.6875 31.75 C-3.72188215 31.24607061 -6.10093816 29.7879639 -9.3125 26.75 C-12.57931648 21.68472705 -11.89541304 15.52875518 -11.3125 9.75 C-9.2424007 5.37979037 -5.43909003 -0.58800973 0 0 Z " fill="#486EBC" transform="translate(327.3125,42.25)"/>
<path d="M0 0 C0.8353125 0.37125 0.8353125 0.37125 1.6875 0.75 C0.924375 1.08 0.16125 1.41 -0.625 1.75 C-4.25883532 4.07735628 -4.25883532 4.07735628 -6.3125 11.75 C-0.3725 11.75 5.5675 11.75 11.6875 11.75 C11.254375 10.326875 10.82125 8.90375 10.375 7.4375 C10.13136719 6.63699219 9.88773438 5.83648437 9.63671875 5.01171875 C8.64567977 2.65035427 7.60675057 1.41120007 5.6875 -0.25 C9.49655906 -0.03233948 10.68116389 0.74394549 13.5 3.4375 C15.6875 6.75 15.6875 6.75 15.6875 12.75 C8.0975 12.75 0.5075 12.75 -7.3125 12.75 C-6.07582561 22.18442422 -6.07582561 22.18442422 -2.3125 30.75 C-6.22554179 29.48090537 -8.16860288 28.28743024 -10.3125 24.75 C-12.32388947 18.7158316 -12.39006502 11.98494967 -9.625 6.25 C-3.49431818 -0.37776413 -3.49431818 -0.37776413 0 0 Z " fill="#3D63B4" transform="translate(141.3125,42.25)"/>
<path d="M0 0 C1.65 0 3.3 0 5 0 C5.33 12.21 5.66 24.42 6 37 C6.66 37.33 7.32 37.66 8 38 C5.08141901 37.68447773 3.45638071 37.46551924 1.36621094 35.33349609 C-0.35903321 32.38676922 -0.44350534 30.31860879 -0.546875 26.9140625 C-0.58683594 25.73585938 -0.62679688 24.55765625 -0.66796875 23.34375 C-0.69503906 22.1165625 -0.72210938 20.889375 -0.75 19.625 C-0.79253906 18.40554687 -0.83507812 17.18609375 -0.87890625 15.9296875 C-1.04055225 10.44569715 -1.04045756 5.40612013 0 0 Z " fill="#4066B6" transform="translate(297,36)"/>
<path d="M0 0 C0.86625 0.3403125 0.86625 0.3403125 1.75 0.6875 C0.76 1.3475 -0.23 2.0075 -1.25 2.6875 C-1.30258291 6.06641391 -1.30258291 6.06641391 -0.25 9.6875 C2.17370067 11.34211234 4.02823258 12.36746772 6.6875 13.4375 C13.54257794 16.37636691 13.54257794 16.37636691 15.75 19.6875 C16.1875 22.5625 16.1875 22.5625 15.75 25.6875 C13.33447681 28.79317268 11.73995534 30.4015129 7.9375 31.5 C6.8546875 31.5928125 6.8546875 31.5928125 5.75 31.6875 C6.41 31.171875 7.07 30.65625 7.75 30.125 C10.04138084 27.74959577 10.04138084 27.74959577 10.3125 24.1875 C10.06595097 20.66417813 10.06595097 20.66417813 7.875 18.5625 C4.33588195 16.43902917 0.70917338 14.6493409 -3.04296875 12.93359375 C-5.25 11.6875 -5.25 11.6875 -7.25 8.6875 C-7.1040104 5.18374953 -6.86007704 3.33965132 -4.4375 0.75 C-2.25 -0.3125 -2.25 -0.3125 0 0 Z " fill="#3F65B6" transform="translate(61.25,42.3125)"/>
<path d="M0 0 C3.375 0.3125 3.375 0.3125 7 1 C9.29174077 4.43761116 9.29524047 5.92071615 9.4140625 9.98046875 C9.45273437 11.14384766 9.49140625 12.30722656 9.53125 13.50585938 C9.5621875 14.72080078 9.593125 15.93574219 9.625 17.1875 C9.66367187 18.41404297 9.70234375 19.64058594 9.7421875 20.90429688 C9.83656103 23.93604656 9.92214549 26.96778841 10 30 C11.32 30.66 12.64 31.32 14 32 C7.79545455 32.59659091 7.79545455 32.59659091 4.5 30.125 C2.33131828 25.60691308 3.13778673 21.82651992 4 17 C1.69 17 -0.62 17 -3 17 C-3 16.67 -3 16.34 -3 16 C-0.69 16 1.62 16 4 16 C3.91291962 13.89505699 3.80474307 11.79097858 3.6875 9.6875 C3.60048828 7.92986328 3.60048828 7.92986328 3.51171875 6.13671875 C2.98395232 2.9016314 2.57619276 1.91315119 0 0 Z " fill="#446AB9" transform="translate(256,42)"/>
<path d="M0 0 C1.65 0 3.3 0 5 0 C5 10.56 5 21.12 5 32 C3.35 32 1.7 32 0 32 C0 21.44 0 10.88 0 0 Z " fill="#4066B6" transform="translate(273,42)"/>
<path d="M0 0 C1.65 0 3.3 0 5 0 C5.33 9.9 5.66 19.8 6 30 C7.32 30.66 8.64 31.32 10 32 C3.56825303 32.36406115 3.56825303 32.36406115 1.2878418 30.90307617 C-0.63280605 28.0648866 -0.33746921 25.76014997 -0.29296875 22.36328125 C-0.2784668 20.41518555 -0.2784668 20.41518555 -0.26367188 18.42773438 C-0.23860585 17.05598361 -0.21321101 15.68423882 -0.1875 14.3125 C-0.1724502 12.92905076 -0.1587623 11.54558599 -0.14648438 10.16210938 C-0.11107223 6.77434793 -0.06168054 3.38736861 0 0 Z " fill="#4066B7" transform="translate(81,42)"/>
<path d="M0 0 C5.48310811 0.48738739 5.48310811 0.48738739 7.6809082 2.66699219 C9.36899004 5.65261315 9.34324127 7.65959357 9.29296875 11.078125 C9.28330078 12.23828125 9.27363281 13.3984375 9.26367188 14.59375 C9.23853516 15.8003125 9.21339844 17.006875 9.1875 18.25 C9.17396484 19.47203125 9.16042969 20.6940625 9.14648438 21.953125 C9.1111398 24.96919498 9.0617956 27.98437487 9 31 C10.32 31.33 11.64 31.66 13 32 C7.375 32.25 7.375 32.25 4 30 C3.61523438 27.34204102 3.61523438 27.34204102 3.59375 24.00390625 C3.57183594 22.80572266 3.54992188 21.60753906 3.52734375 20.37304688 C3.51832031 19.11556641 3.50929687 17.85808594 3.5 16.5625 C3.48216351 14.08450256 3.45151601 11.60655442 3.40625 9.12890625 C3.39916016 8.02619385 3.39207031 6.92348145 3.38476562 5.78735352 C2.96271041 2.72986342 2.41737612 1.83104234 0 0 Z " fill="#4167B7" transform="translate(38,42)"/>
<path d="M0 0 C1.32 0 2.64 0 4 0 C5.22399452 6.64041122 5.11227753 13.20221697 5.0625 19.9375 C5.05798828 21.09830078 5.05347656 22.25910156 5.04882812 23.45507812 C5.03710647 26.30343934 5.0206976 29.15169222 5 32 C3.35 32 1.7 32 0 32 C0 21.44 0 10.88 0 0 Z " fill="#3E64B5" transform="translate(21,42)"/>
<path d="M0 0 C0.99 0.33 1.98 0.66 3 1 C2.360625 1.9075 1.72125 2.815 1.0625 3.75 C-2.43069599 9.25443004 -2.58008017 14.58962253 -2 21 C-1.15378725 23.88646802 -0.17059915 26.82940085 2 29 C8.08468557 29.23376923 8.08468557 29.23376923 14 28 C12.30802484 30.07776754 11.40295429 30.92301562 8.73046875 31.43359375 C2.99691942 31.44240105 -0.55254518 31.00270933 -5 27 C-8.45593613 21.78034474 -7.57563524 14.97134865 -7 9 C-5.99106858 6.27141206 -5.04610062 5.16302066 -3 3 C-2.4225 2.38125 -1.845 1.7625 -1.25 1.125 C-0.8375 0.75375 -0.425 0.3825 0 0 Z " fill="#4268B8" transform="translate(102,43)"/>
<path d="M0 0 C1.32 0 2.64 0 4 0 C4.33 9.9 4.66 19.8 5 30 C6.32 30.66 7.64 31.32 9 32 C5.625 32.125 5.625 32.125 2 32 C0 30 0 30 -0.22705078 27.01904297 C-0.21657715 25.77268066 -0.20610352 24.52631836 -0.1953125 23.2421875 C-0.1924826 22.57913605 -0.18965271 21.91608459 -0.18673706 21.23294067 C-0.17553435 19.11344417 -0.15043051 16.99436896 -0.125 14.875 C-0.11497028 13.43880818 -0.10584441 12.00260975 -0.09765625 10.56640625 C-0.075595 7.04413372 -0.04106494 3.52210797 0 0 Z " fill="#375DB0" transform="translate(229,42)"/>
<path d="M0 0 C1.32 0 2.64 0 4 0 C5.61974301 10.64046562 4.65623448 21.31424078 4 32 C2.68 32 1.36 32 0 32 C0 21.44 0 10.88 0 0 Z " fill="#365CAF" transform="translate(346,42)"/>
<path d="M0 0 C1.32 0 2.64 0 4 0 C4.01458252 0.82725586 4.02916504 1.65451172 4.04418945 2.50683594 C4.1186586 6.25502881 4.2153246 10.00232997 4.3125 13.75 C4.33505859 15.05195312 4.35761719 16.35390625 4.38085938 17.6953125 C4.41630859 18.94570313 4.45175781 20.19609375 4.48828125 21.484375 C4.51446533 22.63647461 4.54064941 23.78857422 4.56762695 24.97558594 C5.03125938 28.21865678 5.80767749 29.62136835 8 32 C5.125 31.6875 5.125 31.6875 2 31 C-0.39112209 27.41331687 -0.23381027 25.83603431 -0.1953125 21.58203125 C-0.18886719 20.32841797 -0.18242187 19.07480469 -0.17578125 17.78320312 C-0.15902344 16.47287109 -0.14226562 15.16253906 -0.125 13.8125 C-0.11496639 12.47722013 -0.1058412 11.14193311 -0.09765625 9.80664062 C-0.07405292 6.53757985 -0.04112594 3.26887972 0 0 Z " fill="#375DB0" transform="translate(208,42)"/>
<path d="M0 0 C0.54011719 0.57492188 1.08023438 1.14984375 1.63671875 1.7421875 C7.57871026 7.41899923 14.82091575 12.51289377 23 14 C23 14.33 23 14.66 23 15 C15.88569161 15.45898764 10.20334926 14.71384725 4 11 C1.3652299 8.53460798 -0.86874205 5.90754396 -3 3 C-2.01 2.01 -1.02 1.02 0 0 Z " fill="#4167B7" transform="translate(187,72)"/>
<path d="M0 0 C3.80905906 0.21766052 4.99366389 0.99394549 7.8125 3.6875 C10 7 10 7 10 13 C2.41 13 -5.18 13 -13 13 C-12.67 12.01 -12.34 11.02 -12 10 C-12 10.66 -12 11.32 -12 12 C-6.06 12 -0.12 12 6 12 C5.566875 10.576875 5.13375 9.15375 4.6875 7.6875 C4.44386719 6.88699219 4.20023438 6.08648437 3.94921875 5.26171875 C2.95817977 2.90035427 1.91925057 1.66120007 0 0 Z " fill="#4A70BE" transform="translate(147,42)"/>
<path d="M0 0 C-2 1 -4 2 -6 3 C-6.43933257 8.53069113 -6.43933257 8.53069113 -4.5 13.5 C-4.005 13.995 -3.51 14.49 -3 15 C-5.8125 14.8125 -5.8125 14.8125 -9 14 C-11.13587577 11.43694907 -11.90441347 9.66910569 -12.375 6.375 C-11.9261389 3.532213 -11.28864443 2.69529217 -9 1 C-5.8035914 -0.06546953 -3.34252724 -0.07427838 0 0 Z " fill="#4268B8" transform="translate(253,59)"/>
<path d="M0 0 C3.8496075 0.21997757 4.99046001 0.99067201 7.8125 3.75 C10.00549633 7.00816598 10.55784577 8.20664878 10 12 C8.68 12 7.36 12 6 12 C5.81824219 11.38511719 5.63648438 10.77023438 5.44921875 10.13671875 C5.07216797 8.92435547 5.07216797 8.92435547 4.6875 7.6875 C4.32205078 6.48673828 4.32205078 6.48673828 3.94921875 5.26171875 C2.95817977 2.90035427 1.91925057 1.66120007 0 0 Z " fill="#3C62B4" transform="translate(333,42)"/>
<path d="M0 0 C1.125 3.75 1.125 3.75 0 6 C-2.4375 5.625 -2.4375 5.625 -5 5 C-5.33 4.34 -5.66 3.68 -6 3 C-6.99 3 -7.98 3 -9 3 C-6.38997624 -0.48003168 -4.1689578 -0.27793052 0 0 Z " fill="#476DBC" transform="translate(363,42)"/>
<path d="M0 0 C1.2065625 0.0309375 1.2065625 0.0309375 2.4375 0.0625 C2.81968767 1.71864657 3.15145102 3.38707024 3.4375 5.0625 C2.4375 6.0625 2.4375 6.0625 -0.125 6.125 C-1.3315625 6.0940625 -1.3315625 6.0940625 -2.5625 6.0625 C-2.94468767 4.40635343 -3.27645102 2.73792976 -3.5625 1.0625 C-2.5625 0.0625 -2.5625 0.0625 0 0 Z " fill="#3A60B2" transform="translate(416.5625,50.9375)"/>
<path d="M0 0 C0.66 1.32 1.32 2.64 2 4 C1.34 4.66 0.68 5.32 0 6 C-2.125 5.625 -2.125 5.625 -4 5 C-4 4.01 -4 3.02 -4 2 C-6.475 3.485 -6.475 3.485 -9 5 C-6.81610567 0.16423399 -5.20641855 -0.13701101 0 0 Z " fill="#466DBB" transform="translate(290,42)"/>
<path d="M0 0 C1.04542969 -0.00515625 2.09085938 -0.0103125 3.16796875 -0.015625 C5.8125 0.25 5.8125 0.25 7.8125 2.25 C6.8225 2.745 6.8225 2.745 5.8125 3.25 C5.1525 2.92 4.4925 2.59 3.8125 2.25 C1.73685324 2.05241769 1.73685324 2.05241769 -0.5625 2.0625 C-1.33335937 2.04832031 -2.10421875 2.03414062 -2.8984375 2.01953125 C-5.40584888 2.27198393 -7.02011902 2.99806533 -9.1875 4.25 C-9.8475 3.59 -10.5075 2.93 -11.1875 2.25 C-7.32523965 0.45094342 -4.24937948 -0.02111493 0 0 Z " fill="#567CC7" transform="translate(183.1875,28.75)"/>
<path d="M0 0 C2.0625 0.4375 2.0625 0.4375 4 1 C3.67 2.65 3.34 4.3 3 6 C2.01 6 1.02 6 0 6 C-0.38218767 4.34385343 -0.71395102 2.67542976 -1 1 C-0.67 0.67 -0.34 0.34 0 0 Z " fill="#446AB9" transform="translate(82,30)"/>
</svg>
